<svg id="visual" viewBox="0 0 900 600" width="900" height="600" xmlns="http://www.w3.org/2000/svg" xmlns:xlink="http://www.w3.org/1999/xlink" version="1.1"><rect x="0" y="0" width="900" height="600" fill="#002233"></rect><path d="M0 410L21.5 409.8C43 409.7 86 409.3 128.8 393C171.7 376.7 214.3 344.3 257.2 355.5C300 366.7 343 421.3 385.8 422.2C428.7 423 471.3 370 514.2 377.7C557 385.3 600 453.7 642.8 446.7C685.7 439.7 728.3 357.3 771.2 346.7C814 336 857 397 878.5 427.5L900 458L900 601L878.5 601C857 601 814 601 771.2 601C728.3 601 685.7 601 642.8 601C600 601 557 601 514.2 601C471.3 601 428.7 601 385.8 601C343 601 300 601 257.2 601C214.3 601 171.7 601 128.8 601C86 601 43 601 21.5 601L0 601Z" fill="#00d1b2" stroke-linecap="round" stroke-linejoin="miter"></path></svg>