<svg id="visual" viewBox="0 0 900 600" width="900" height="600" xmlns="http://www.w3.org/2000/svg" xmlns:xlink="http://www.w3.org/1999/xlink" version="1.1"><g stroke-width="1" stroke-linejoin="bevel"><path d="M416 315L403 383L490 391Z" fill="#074a5f" stroke="#074a5f"></path><path d="M490 391L528 280L416 315Z" fill="#09394c" stroke="#09394c"></path><path d="M490 391L572 390L528 280Z" fill="#09394c" stroke="#09394c"></path><path d="M321 297L329 426L403 383Z" fill="#00a9a7" stroke="#00a9a7"></path><path d="M403 383L497 515L490 391Z" fill="#00bdae" stroke="#00bdae"></path><path d="M490 391L592 486L572 390Z" fill="#00bdae" stroke="#00bdae"></path><path d="M424 206L321 297L416 315Z" fill="#074a5f" stroke="#074a5f"></path><path d="M416 315L321 297L403 383Z" fill="#061a28" stroke="#061a28"></path><path d="M528 280L424 206L416 315Z" fill="#09293a" stroke="#09293a"></path><path d="M361 500L497 515L403 383Z" fill="#09394c" stroke="#09394c"></path><path d="M329 426L361 500L403 383Z" fill="#074a5f" stroke="#074a5f"></path><path d="M582 208L528 199L528 280Z" fill="#00d1b2" stroke="#00d1b2"></path><path d="M528 280L528 199L424 206Z" fill="#09394c" stroke="#09394c"></path><path d="M329 426L312 473L361 500Z" fill="#00a9a7" stroke="#00a9a7"></path><path d="M208 364L312 473L329 426Z" fill="#061a28" stroke="#061a28"></path><path d="M697 419L633 336L572 390Z" fill="#061a28" stroke="#061a28"></path><path d="M572 390L633 336L528 280Z" fill="#006f81" stroke="#006f81"></path><path d="M497 515L592 486L490 391Z" fill="#006f81" stroke="#006f81"></path><path d="M633 336L582 208L528 280Z" fill="#074a5f" stroke="#074a5f"></path><path d="M521 69L434 129L528 199Z" fill="#00bdae" stroke="#00bdae"></path><path d="M528 199L434 129L424 206Z" fill="#061a28" stroke="#061a28"></path><path d="M268 198L233 276L321 297Z" fill="#035c70" stroke="#035c70"></path><path d="M268 198L321 297L424 206Z" fill="#00a9a7" stroke="#00a9a7"></path><path d="M321 297L208 364L329 426Z" fill="#09394c" stroke="#09394c"></path><path d="M434 129L268 198L424 206Z" fill="#09293a" stroke="#09293a"></path><path d="M233 276L208 364L321 297Z" fill="#09394c" stroke="#09394c"></path><path d="M697 419L691 334L633 336Z" fill="#09293a" stroke="#09293a"></path><path d="M633 336L687 192L582 208Z" fill="#09293a" stroke="#09293a"></path><path d="M313 600L361 500L312 473Z" fill="#00d1b2" stroke="#00d1b2"></path><path d="M313 600L395 600L361 500Z" fill="#074a5f" stroke="#074a5f"></path><path d="M361 500L395 600L497 515Z" fill="#00d1b2" stroke="#00d1b2"></path><path d="M497 515L574 600L592 486Z" fill="#00a9a7" stroke="#00a9a7"></path><path d="M395 600L508 600L497 515Z" fill="#074a5f" stroke="#074a5f"></path><path d="M592 486L697 419L572 390Z" fill="#00bdae" stroke="#00bdae"></path><path d="M663 525L697 419L592 486Z" fill="#035c70" stroke="#035c70"></path><path d="M687 192L587 134L582 208Z" fill="#061a28" stroke="#061a28"></path><path d="M582 208L587 134L528 199Z" fill="#00bdae" stroke="#00bdae"></path><path d="M574 600L663 525L592 486Z" fill="#00a9a7" stroke="#00a9a7"></path><path d="M508 600L574 600L497 515Z" fill="#035c70" stroke="#035c70"></path><path d="M200 600L313 600L312 473Z" fill="#00969d" stroke="#00969d"></path><path d="M691 334L687 192L633 336Z" fill="#074a5f" stroke="#074a5f"></path><path d="M778 305L687 192L691 334Z" fill="#09394c" stroke="#09394c"></path><path d="M587 134L521 69L528 199Z" fill="#00a9a7" stroke="#00a9a7"></path><path d="M266 87L213 169L268 198Z" fill="#09394c" stroke="#09394c"></path><path d="M571 0L521 69L587 134Z" fill="#00bdae" stroke="#00bdae"></path><path d="M268 198L213 169L233 276Z" fill="#006f81" stroke="#006f81"></path><path d="M233 276L91 333L208 364Z" fill="#074a5f" stroke="#074a5f"></path><path d="M266 87L268 198L434 129Z" fill="#061a28" stroke="#061a28"></path><path d="M114 502L161 508L73 385Z" fill="#006f81" stroke="#006f81"></path><path d="M208 364L161 508L312 473Z" fill="#008290" stroke="#008290"></path><path d="M389 0L266 87L434 129Z" fill="#00d1b2" stroke="#00d1b2"></path><path d="M830 421L778 305L697 419Z" fill="#00969d" stroke="#00969d"></path><path d="M697 419L778 305L691 334Z" fill="#00a9a7" stroke="#00a9a7"></path><path d="M161 508L200 600L312 473Z" fill="#006f81" stroke="#006f81"></path><path d="M825 226L723 130L687 192Z" fill="#00d1b2" stroke="#00d1b2"></path><path d="M687 192L723 130L587 134Z" fill="#074a5f" stroke="#074a5f"></path><path d="M85 220L233 276L213 169Z" fill="#008290" stroke="#008290"></path><path d="M85 220L91 333L233 276Z" fill="#00969d" stroke="#00969d"></path><path d="M571 0L503 0L521 69Z" fill="#09293a" stroke="#09293a"></path><path d="M521 69L389 0L434 129Z" fill="#074a5f" stroke="#074a5f"></path><path d="M503 0L389 0L521 69Z" fill="#074a5f" stroke="#074a5f"></path><path d="M73 385L161 508L208 364Z" fill="#09394c" stroke="#09394c"></path><path d="M161 508L101 600L200 600Z" fill="#061a28" stroke="#061a28"></path><path d="M232 0L189 96L266 87Z" fill="#006f81" stroke="#006f81"></path><path d="M266 87L189 96L213 169Z" fill="#00d1b2" stroke="#00d1b2"></path><path d="M730 0L571 0L587 134Z" fill="#00a9a7" stroke="#00a9a7"></path><path d="M91 333L73 385L208 364Z" fill="#006f81" stroke="#006f81"></path><path d="M574 600L738 600L663 525Z" fill="#006f81" stroke="#006f81"></path><path d="M803 527L830 421L697 419Z" fill="#00bdae" stroke="#00bdae"></path><path d="M803 527L697 419L663 525Z" fill="#008290" stroke="#008290"></path><path d="M778 305L825 226L687 192Z" fill="#00bdae" stroke="#00bdae"></path><path d="M189 96L85 220L213 169Z" fill="#09394c" stroke="#09394c"></path><path d="M91 333L0 375L73 385Z" fill="#008290" stroke="#008290"></path><path d="M738 600L803 527L663 525Z" fill="#09394c" stroke="#09394c"></path><path d="M900 312L825 226L778 305Z" fill="#00bdae" stroke="#00bdae"></path><path d="M738 600L764 600L803 527Z" fill="#00a9a7" stroke="#00a9a7"></path><path d="M389 0L268 0L266 87Z" fill="#006f81" stroke="#006f81"></path><path d="M189 96L62 90L85 220Z" fill="#09293a" stroke="#09293a"></path><path d="M268 0L232 0L266 87Z" fill="#074a5f" stroke="#074a5f"></path><path d="M0 516L101 600L114 502Z" fill="#035c70" stroke="#035c70"></path><path d="M114 502L101 600L161 508Z" fill="#09293a" stroke="#09293a"></path><path d="M0 278L0 375L91 333Z" fill="#00969d" stroke="#00969d"></path><path d="M73 385L0 516L114 502Z" fill="#00bdae" stroke="#00bdae"></path><path d="M900 480L900 380L830 421Z" fill="#00d1b2" stroke="#00d1b2"></path><path d="M830 421L900 380L778 305Z" fill="#074a5f" stroke="#074a5f"></path><path d="M900 480L830 421L803 527Z" fill="#061a28" stroke="#061a28"></path><path d="M900 380L900 312L778 305Z" fill="#035c70" stroke="#035c70"></path><path d="M833 60L723 130L825 226Z" fill="#09293a" stroke="#09293a"></path><path d="M833 60L730 0L723 130Z" fill="#00969d" stroke="#00969d"></path><path d="M723 130L730 0L587 134Z" fill="#008290" stroke="#008290"></path><path d="M0 160L0 278L85 220Z" fill="#09394c" stroke="#09394c"></path><path d="M85 220L0 278L91 333Z" fill="#061a28" stroke="#061a28"></path><path d="M900 600L900 480L803 527Z" fill="#061a28" stroke="#061a28"></path><path d="M61 0L62 90L189 96Z" fill="#09293a" stroke="#09293a"></path><path d="M0 375L0 516L73 385Z" fill="#00bdae" stroke="#00bdae"></path><path d="M900 312L900 180L825 226Z" fill="#008290" stroke="#008290"></path><path d="M900 180L833 60L825 226Z" fill="#074a5f" stroke="#074a5f"></path><path d="M62 90L0 160L85 220Z" fill="#09394c" stroke="#09394c"></path><path d="M0 516L0 600L101 600Z" fill="#006f81" stroke="#006f81"></path><path d="M0 0L0 112L62 90Z" fill="#00d1b2" stroke="#00d1b2"></path><path d="M62 90L0 112L0 160Z" fill="#00bdae" stroke="#00bdae"></path><path d="M764 600L900 600L803 527Z" fill="#074a5f" stroke="#074a5f"></path><path d="M900 180L900 104L833 60Z" fill="#035c70" stroke="#035c70"></path><path d="M900 0L827 0L833 60Z" fill="#074a5f" stroke="#074a5f"></path><path d="M833 60L827 0L730 0Z" fill="#00969d" stroke="#00969d"></path><path d="M232 0L61 0L189 96Z" fill="#00d1b2" stroke="#00d1b2"></path><path d="M61 0L0 0L62 90Z" fill="#00a9a7" stroke="#00a9a7"></path><path d="M900 104L900 0L833 60Z" fill="#00bdae" stroke="#00bdae"></path></g></svg>